<svg id="svg" version="1.1" xmlns="http://www.w3.org/2000/svg" xmlns:xlink="http://www.w3.org/1999/xlink" width="400" height="377.04918032786884" viewBox="0, 0, 400,377.04918032786884"><g id="svgg"><path id="path0" d="M94.625 53.774 C 94.525 54.292,94.574 54.717,94.732 54.717 C 95.142 54.717,95.969 58.388,95.711 59.061 C 95.592 59.370,95.678 59.623,95.902 59.623 C 96.145 59.623,96.247 60.154,96.155 60.937 C 96.071 61.661,96.178 62.311,96.394 62.383 C 96.609 62.455,96.991 63.603,97.242 64.936 C 97.882 68.331,98.686 71.981,99.208 73.868 L 99.652 75.472 196.807 75.472 C 282.916 75.472,293.962 75.407,293.962 74.906 C 293.962 74.594,294.142 74.340,294.362 74.340 C 294.582 74.340,294.655 74.167,294.525 73.957 C 294.224 73.469,295.112 69.434,295.520 69.434 C 295.688 69.434,295.728 69.181,295.610 68.872 C 295.367 68.240,296.167 64.530,296.547 64.526 C 296.682 64.525,296.813 63.776,296.838 62.861 C 296.895 60.752,297.289 59.158,297.692 59.407 C 297.864 59.513,297.933 59.223,297.845 58.762 C 297.758 58.301,297.879 57.160,298.115 56.226 C 298.350 55.292,298.636 54.146,298.749 53.679 L 298.956 52.830 196.880 52.830 L 94.805 52.830 94.625 53.774 M76.317 101.038 C 76.371 102.231,76.604 103.409,76.835 103.655 C 77.304 104.153,77.893 108.497,77.564 109.029 C 77.448 109.216,77.512 109.426,77.706 109.496 C 78.244 109.690,78.653 111.698,78.154 111.698 C 77.924 111.698,77.736 111.868,77.736 112.075 C 77.736 112.283,77.941 112.410,78.191 112.358 C 78.458 112.303,78.742 112.888,78.879 113.774 C 79.008 114.604,79.241 115.835,79.398 116.509 C 79.609 117.419,79.553 117.739,79.181 117.747 C 78.861 117.755,78.919 117.898,79.340 118.143 C 79.792 118.407,80.000 118.997,80.000 120.019 L 80.000 121.509 196.563 121.509 C 293.017 121.509,313.160 121.423,313.319 121.009 C 313.424 120.734,313.634 119.362,313.784 117.960 C 313.934 116.559,314.252 115.337,314.490 115.245 C 314.752 115.145,314.867 114.484,314.781 113.577 C 314.702 112.751,314.783 112.075,314.960 112.075 C 315.138 112.075,315.303 111.439,315.328 110.660 C 315.394 108.608,315.901 106.038,316.241 106.038 C 316.402 106.038,316.446 105.704,316.339 105.296 C 316.112 104.426,316.938 100.666,317.426 100.347 C 317.611 100.227,317.653 99.845,317.520 99.498 C 317.294 98.911,308.992 98.868,196.749 98.868 L 76.220 98.868 76.317 101.038 M60.302 144.981 C 60.551 145.230,60.755 146.027,60.755 146.751 C 60.755 147.475,60.965 149.084,61.221 150.325 C 61.600 152.159,61.595 152.613,61.198 152.745 C 60.823 152.870,60.856 153.071,61.337 153.603 C 61.785 154.098,61.927 154.794,61.829 156.017 C 61.754 156.962,61.802 157.736,61.936 157.736 C 62.469 157.736,62.714 161.232,62.203 161.547 C 61.807 161.792,61.849 161.965,62.404 162.370 C 62.957 162.775,63.076 163.257,62.965 164.648 C 62.888 165.619,62.930 166.456,63.059 166.509 C 63.500 166.688,63.843 170.189,63.419 170.189 C 63.199 170.189,63.019 170.369,63.019 170.588 C 63.019 170.808,63.184 170.886,63.385 170.762 C 63.879 170.456,64.269 172.149,64.079 173.775 C 63.994 174.500,64.082 175.094,64.273 175.094 C 64.465 175.094,64.547 175.996,64.456 177.098 C 64.337 178.523,64.445 179.247,64.829 179.606 C 65.208 179.960,65.316 180.654,65.192 181.942 C 65.091 183.003,65.172 183.774,65.385 183.774 C 65.601 183.774,65.683 184.629,65.583 185.839 C 65.488 186.975,65.569 187.957,65.762 188.021 C 66.295 188.199,66.605 191.698,66.087 191.698 C 65.848 191.698,65.680 192.238,65.705 192.925 L 65.750 194.151 66.023 193.019 C 66.418 191.382,66.910 192.684,66.734 194.901 C 66.659 195.837,66.717 196.604,66.861 196.604 C 67.344 196.604,67.692 200.140,67.224 200.296 C 66.637 200.492,66.673 201.156,67.264 201.038 C 67.596 200.971,67.736 201.560,67.736 203.019 C 67.736 204.160,67.847 205.179,67.982 205.283 C 68.484 205.668,68.785 209.057,68.318 209.057 C 68.035 209.057,68.089 209.275,68.464 209.650 C 68.803 209.989,69.066 210.916,69.079 211.819 C 69.091 212.687,69.233 214.197,69.395 215.175 C 69.570 216.240,69.540 217.101,69.321 217.321 C 69.084 217.558,69.187 217.920,69.613 218.346 C 70.108 218.841,70.226 219.410,70.087 220.640 C 69.986 221.540,70.064 222.376,70.260 222.497 C 70.457 222.619,70.577 223.507,70.526 224.472 C 70.476 225.437,70.646 226.620,70.905 227.101 C 71.163 227.582,71.340 228.601,71.297 229.365 C 71.255 230.129,71.345 231.051,71.499 231.414 C 71.652 231.776,71.713 232.751,71.634 233.580 C 71.555 234.409,71.625 235.133,71.790 235.188 C 72.377 235.384,72.609 239.244,72.034 239.257 C 71.670 239.265,71.712 239.386,72.170 239.653 C 72.616 239.913,72.830 240.504,72.830 241.477 C 72.830 242.268,73.000 243.813,73.208 244.909 C 73.463 246.251,73.461 247.053,73.204 247.363 C 72.935 247.686,73.004 247.976,73.432 248.332 C 73.892 248.713,74.000 249.285,73.869 250.646 C 73.774 251.640,73.823 252.453,73.980 252.453 C 74.364 252.453,74.615 255.867,74.248 256.095 C 74.088 256.194,74.231 256.549,74.567 256.885 C 75.019 257.337,75.132 257.966,75.002 259.314 C 74.905 260.328,74.986 261.132,75.185 261.132 C 75.381 261.132,75.484 262.064,75.412 263.208 C 75.340 264.376,75.448 265.339,75.660 265.409 C 75.868 265.478,76.038 266.496,76.038 267.672 C 76.038 268.847,76.186 269.810,76.367 269.810 C 76.549 269.811,76.620 270.741,76.526 271.877 C 76.419 273.161,76.508 273.993,76.760 274.077 C 76.983 274.152,77.187 275.048,77.214 276.068 C 77.240 277.089,77.389 278.230,77.546 278.602 C 77.702 278.975,77.745 280.037,77.641 280.961 C 77.536 281.885,77.585 282.642,77.749 282.642 C 78.267 282.642,78.596 285.644,78.139 286.195 C 77.818 286.583,77.861 286.760,78.320 286.936 C 78.778 287.112,78.901 287.606,78.828 288.981 C 78.775 289.979,78.828 290.956,78.945 291.152 C 79.429 291.963,79.662 294.648,79.269 294.891 C 78.997 295.059,79.059 295.339,79.456 295.737 C 79.836 296.116,80.024 296.891,79.977 297.882 C 79.936 298.736,80.031 299.739,80.187 300.112 C 80.344 300.485,80.391 301.508,80.292 302.386 C 80.167 303.491,80.282 304.141,80.665 304.499 C 81.050 304.858,81.162 305.507,81.036 306.633 C 80.935 307.522,81.019 308.416,81.222 308.618 C 81.425 308.821,81.529 309.767,81.453 310.720 C 81.377 311.673,81.433 312.453,81.578 312.453 C 82.061 312.453,82.409 315.989,81.941 316.145 C 81.704 316.225,81.512 316.657,81.515 317.107 C 81.520 317.759,81.592 317.812,81.872 317.369 C 82.392 316.547,82.759 317.717,82.577 319.621 C 82.498 320.452,82.545 321.132,82.683 321.132 C 83.117 321.132,83.480 324.596,83.087 324.989 C 82.845 325.230,82.966 325.608,83.434 326.075 C 84.135 326.777,86.626 326.792,196.526 326.792 L 308.900 326.792 309.356 325.089 C 309.606 324.152,309.811 322.737,309.811 321.944 C 309.811 321.152,309.917 320.398,310.046 320.268 C 310.175 320.139,310.335 319.219,310.402 318.224 C 310.575 315.632,310.953 312.734,311.203 312.075 C 311.321 311.764,311.385 310.811,311.344 309.958 C 311.298 308.995,311.485 308.191,311.837 307.839 C 312.230 307.447,312.283 307.151,312.012 306.880 C 311.741 306.609,311.748 305.890,312.036 304.546 C 312.265 303.478,312.453 301.962,312.453 301.176 C 312.453 300.391,312.555 299.647,312.679 299.522 C 312.804 299.397,312.935 298.405,312.972 297.318 C 313.008 296.230,313.228 295.276,313.462 295.198 C 313.726 295.110,313.811 294.503,313.688 293.584 C 313.579 292.774,313.618 291.806,313.775 291.433 C 313.932 291.060,314.026 290.051,313.985 289.190 C 313.942 288.290,314.121 287.429,314.408 287.162 C 314.737 286.856,314.862 286.010,314.776 284.670 C 314.703 283.523,314.806 282.642,315.013 282.642 C 315.221 282.642,315.300 281.939,315.195 281.012 C 315.062 279.827,315.178 279.215,315.622 278.772 C 315.958 278.436,316.077 278.066,315.888 277.949 C 315.502 277.710,315.809 274.590,316.235 274.419 C 316.385 274.358,316.419 273.525,316.311 272.567 C 316.155 271.178,316.252 270.726,316.793 270.330 C 317.308 269.954,317.369 269.713,317.049 269.328 C 316.629 268.820,316.854 266.038,317.316 266.038 C 317.446 266.038,317.489 265.243,317.412 264.272 C 317.301 262.880,317.420 262.398,317.974 261.993 C 318.537 261.581,318.575 261.417,318.165 261.164 C 317.642 260.841,317.884 257.736,318.432 257.736 C 318.571 257.736,318.624 256.969,318.549 256.033 C 318.475 255.096,318.531 254.035,318.674 253.674 C 318.817 253.314,318.982 252.177,319.042 251.148 C 319.101 250.119,319.303 249.226,319.490 249.164 C 319.677 249.101,319.766 248.372,319.687 247.542 C 319.608 246.713,319.668 245.738,319.820 245.376 C 319.973 245.013,320.064 244.019,320.023 243.165 C 319.977 242.196,320.164 241.399,320.523 241.041 C 320.838 240.725,320.982 240.353,320.842 240.213 C 320.514 239.885,320.726 237.264,321.114 236.861 C 321.277 236.691,321.329 235.830,321.230 234.948 C 321.097 233.769,321.217 233.176,321.684 232.710 C 322.034 232.359,322.127 232.075,321.891 232.075 C 321.450 232.075,321.748 228.690,322.222 228.302 C 322.349 228.198,322.453 227.264,322.453 226.226 C 322.453 224.918,322.597 224.369,322.925 224.434 C 323.515 224.552,323.551 223.888,322.965 223.693 C 322.492 223.535,322.847 220.000,323.335 220.000 C 323.483 220.000,323.540 219.320,323.461 218.489 C 323.382 217.658,323.441 216.682,323.594 216.319 C 323.746 215.957,323.892 214.825,323.919 213.804 C 323.945 212.784,324.137 211.892,324.344 211.822 C 324.552 211.753,324.660 210.917,324.585 209.964 C 324.509 209.012,324.613 208.066,324.816 207.864 C 325.018 207.661,325.102 206.767,325.002 205.878 C 324.880 204.796,324.990 204.102,325.334 203.781 C 325.682 203.458,325.807 202.643,325.720 201.274 C 325.649 200.158,325.735 199.245,325.911 199.245 C 326.088 199.245,326.173 198.508,326.102 197.607 C 326.010 196.453,326.155 195.785,326.595 195.346 C 326.953 194.988,327.095 194.523,326.928 194.254 C 326.593 193.711,326.737 191.178,327.112 191.037 C 327.250 190.984,327.301 190.147,327.223 189.177 C 327.113 187.785,327.232 187.303,327.785 186.899 C 328.356 186.481,328.390 186.325,327.967 186.064 C 327.461 185.751,327.627 183.429,328.225 182.461 C 328.352 182.255,328.414 181.574,328.363 180.949 C 328.239 179.445,329.001 174.178,329.360 174.053 C 329.515 174.000,329.577 173.277,329.498 172.448 C 329.419 171.619,329.479 170.644,329.631 170.281 C 329.784 169.919,329.930 168.787,329.956 167.767 C 329.983 166.746,330.177 165.853,330.389 165.782 C 330.601 165.712,330.709 164.975,330.630 164.146 C 330.551 163.317,330.611 162.342,330.764 161.980 C 330.916 161.617,331.007 160.617,330.966 159.756 C 330.921 158.822,331.102 157.995,331.414 157.703 C 331.779 157.362,331.887 156.611,331.771 155.211 C 331.679 154.109,331.754 153.208,331.937 153.208 C 332.120 153.208,332.211 152.470,332.139 151.570 C 332.043 150.361,332.190 149.751,332.699 149.241 C 333.189 148.752,333.253 148.506,332.922 148.395 C 332.356 148.207,332.718 145.246,333.359 144.817 C 333.587 144.665,272.141 144.537,196.811 144.534 C 90.285 144.530,59.950 144.629,60.302 144.981 M307.547 167.758 C 307.547 168.289,307.420 168.645,307.264 168.548 C 307.108 168.451,307.039 169.290,307.110 170.413 C 307.188 171.644,307.086 172.453,306.851 172.453 C 306.619 172.453,306.547 172.976,306.674 173.753 C 306.915 175.240,306.549 177.108,306.074 176.815 C 305.898 176.706,305.840 177.371,305.943 178.291 C 306.047 179.212,306.004 180.270,305.847 180.643 C 305.691 181.016,305.596 182.019,305.637 182.872 C 305.683 183.835,305.496 184.639,305.144 184.991 C 304.818 185.317,304.717 185.700,304.908 185.892 C 305.285 186.272,304.951 189.434,304.534 189.434 C 304.384 189.434,304.343 190.280,304.442 191.314 C 304.590 192.847,304.504 193.241,303.978 193.442 C 303.511 193.621,303.460 193.768,303.791 193.973 C 304.280 194.275,303.973 197.736,303.457 197.736 C 303.309 197.736,303.252 198.416,303.332 199.247 C 303.411 200.078,303.358 201.054,303.214 201.417 C 303.069 201.779,302.920 202.912,302.881 203.934 C 302.843 204.956,302.646 205.847,302.443 205.914 C 302.241 205.982,302.134 206.971,302.205 208.113 C 302.278 209.291,302.176 210.189,301.968 210.189 C 301.760 210.189,301.681 210.891,301.786 211.818 C 301.919 213.004,301.803 213.615,301.359 214.059 C 301.024 214.394,300.880 214.750,301.040 214.849 C 301.413 215.079,301.153 218.491,300.763 218.491 C 300.602 218.491,300.559 219.281,300.668 220.247 C 300.826 221.653,300.731 222.103,300.188 222.500 C 299.673 222.876,299.612 223.117,299.932 223.503 C 300.353 224.010,300.127 226.792,299.665 226.792 C 299.535 226.792,299.492 227.587,299.569 228.558 C 299.680 229.951,299.561 230.433,299.007 230.837 C 298.444 231.249,298.406 231.413,298.816 231.666 C 299.363 232.004,299.085 235.094,298.508 235.094 C 298.346 235.094,298.234 236.071,298.258 237.264 C 298.289 238.817,298.168 239.407,297.830 239.340 C 297.239 239.221,297.203 239.885,297.790 240.081 C 298.274 240.242,297.902 243.774,297.401 243.774 C 297.242 243.774,297.179 244.241,297.261 244.811 C 297.460 246.199,296.738 251.842,296.344 251.973 C 296.173 252.030,296.094 252.857,296.170 253.809 C 296.246 254.762,296.142 255.707,295.939 255.910 C 295.736 256.113,295.652 257.000,295.751 257.882 C 295.884 259.061,295.764 259.654,295.297 260.120 C 294.947 260.471,294.854 260.755,295.091 260.755 C 295.542 260.755,295.219 264.247,294.750 264.437 C 294.617 264.491,294.574 265.213,294.653 266.042 C 294.732 266.872,294.679 267.847,294.535 268.209 C 294.392 268.571,294.225 269.710,294.166 270.739 C 294.106 271.768,293.908 272.660,293.724 272.721 C 293.541 272.782,293.454 273.626,293.531 274.597 C 293.642 275.988,293.523 276.470,292.970 276.875 C 292.394 277.296,292.362 277.447,292.793 277.713 C 293.361 278.064,293.138 280.841,292.526 281.045 C 292.349 281.104,292.281 282.082,292.375 283.218 C 292.469 284.354,292.397 285.283,292.214 285.283 C 292.031 285.283,291.940 286.026,292.013 286.934 C 292.098 288.013,291.960 288.758,291.613 289.082 C 291.239 289.431,291.131 290.169,291.248 291.581 C 291.339 292.683,291.265 293.585,291.082 293.585 C 290.899 293.585,290.808 294.322,290.880 295.223 C 290.971 296.377,290.826 297.045,290.387 297.484 C 290.028 297.843,289.886 298.307,290.053 298.577 C 290.370 299.090,290.255 301.473,289.883 302.075 C 289.755 302.282,289.644 302.792,289.637 303.207 C 289.616 304.319,103.558 304.603,103.102 303.491 C 102.952 303.128,102.830 301.769,102.830 300.472 C 102.830 299.175,102.718 298.113,102.580 298.113 C 102.105 298.113,101.793 295.037,102.225 294.605 C 102.782 294.048,102.753 293.563,102.170 293.679 C 101.846 293.744,101.686 293.171,101.659 291.846 C 101.638 290.787,101.533 289.768,101.426 289.582 C 100.939 288.739,100.739 286.322,101.119 285.865 C 101.424 285.497,101.374 285.312,100.925 285.139 C 100.467 284.964,100.345 284.470,100.418 283.094 C 100.470 282.097,100.414 281.120,100.293 280.923 C 99.962 280.387,99.805 277.428,100.092 277.141 C 100.229 277.004,100.076 276.626,99.752 276.302 C 99.333 275.883,99.215 275.249,99.343 274.109 C 99.443 273.227,99.358 272.339,99.155 272.136 C 98.952 271.934,98.848 270.988,98.924 270.036 C 99.000 269.081,98.891 268.247,98.682 268.177 C 98.473 268.107,98.280 267.131,98.254 266.006 C 98.227 264.882,98.082 263.666,97.931 263.303 C 97.780 262.941,97.721 261.966,97.800 261.137 C 97.879 260.308,97.770 259.571,97.557 259.500 C 97.344 259.429,97.148 258.451,97.122 257.327 C 97.095 256.203,96.950 254.987,96.799 254.624 C 96.648 254.262,96.589 253.285,96.668 252.454 C 96.748 251.623,96.704 250.943,96.571 250.943 C 96.060 250.943,95.845 247.441,96.320 246.853 C 96.676 246.414,96.679 246.338,96.332 246.547 C 95.742 246.901,95.335 245.369,95.543 243.584 C 95.628 242.858,95.541 242.264,95.349 242.264 C 95.158 242.264,95.076 241.363,95.167 240.261 C 95.285 238.836,95.177 238.111,94.794 237.753 C 94.414 237.399,94.306 236.705,94.430 235.417 C 94.532 234.356,94.451 233.585,94.238 233.585 C 94.022 233.585,93.940 232.729,94.040 231.520 C 94.145 230.256,94.057 229.403,93.813 229.321 C 93.594 229.248,93.383 228.352,93.345 227.330 C 93.306 226.308,93.158 225.177,93.014 224.816 C 92.871 224.456,92.814 223.395,92.889 222.459 C 92.963 221.523,92.857 220.701,92.654 220.633 C 92.450 220.565,92.251 219.673,92.213 218.651 C 92.174 217.629,92.025 216.498,91.882 216.137 C 91.739 215.777,91.682 214.716,91.757 213.780 C 91.831 212.843,91.742 212.027,91.559 211.966 C 91.375 211.905,91.177 211.013,91.117 209.984 C 91.058 208.955,90.891 207.817,90.748 207.454 C 90.604 207.092,90.551 206.116,90.631 205.285 C 90.710 204.454,90.666 203.774,90.533 203.774 C 90.026 203.774,89.795 200.244,90.281 199.923 C 90.640 199.685,90.589 199.511,90.068 199.205 C 89.533 198.890,89.402 198.408,89.476 197.022 C 89.528 196.044,89.471 195.082,89.350 194.886 C 89.002 194.321,88.862 191.767,89.162 191.467 C 89.556 191.073,89.496 190.483,89.087 190.736 C 88.673 190.992,88.210 189.111,88.327 187.646 C 88.373 187.073,88.315 186.349,88.199 186.038 C 87.946 185.363,87.470 181.553,87.374 179.434 C 87.336 178.604,87.168 177.619,87.001 177.246 C 86.834 176.873,86.788 175.897,86.898 175.076 C 87.008 174.256,86.959 173.585,86.790 173.585 C 86.272 173.585,85.913 170.540,86.376 170.077 C 86.874 169.579,86.934 168.924,86.455 169.221 C 86.068 169.460,85.660 168.584,85.660 167.516 C 85.660 166.804,87.489 166.792,196.604 166.792 L 307.547 166.792 307.547 167.758 " stroke="none" fill="#232629" fill-rule="evenodd"></path><path id="path1" d="M298.491 56.415 C 298.491 56.726,298.660 56.981,298.868 56.981 C 299.075 56.981,299.245 56.726,299.245 56.415 C 299.245 56.104,299.075 55.849,298.868 55.849 C 298.660 55.849,298.491 56.104,298.491 56.415 M95.849 64.340 C 95.849 64.651,96.019 64.906,96.226 64.906 C 96.434 64.906,96.604 64.651,96.604 64.340 C 96.604 64.028,96.434 63.774,96.226 63.774 C 96.019 63.774,95.849 64.028,95.849 64.340 M96.981 69.245 C 96.981 69.557,97.151 69.811,97.358 69.811 C 97.566 69.811,97.736 69.557,97.736 69.245 C 97.736 68.934,97.566 68.679,97.358 68.679 C 97.151 68.679,96.981 68.934,96.981 69.245 M98.113 74.151 C 98.113 74.462,98.283 74.717,98.491 74.717 C 98.698 74.717,98.868 74.462,98.868 74.151 C 98.868 73.840,98.698 73.585,98.491 73.585 C 98.283 73.585,98.113 73.840,98.113 74.151 M75.094 99.811 C 75.094 100.123,75.264 100.377,75.472 100.377 C 75.679 100.377,75.849 100.123,75.849 99.811 C 75.849 99.500,75.679 99.245,75.472 99.245 C 75.264 99.245,75.094 99.500,75.094 99.811 M76.226 105.849 C 76.226 106.160,76.396 106.415,76.604 106.415 C 76.811 106.415,76.981 106.160,76.981 105.849 C 76.981 105.538,76.811 105.283,76.604 105.283 C 76.396 105.283,76.226 105.538,76.226 105.849 M77.736 114.528 C 77.736 114.840,77.906 115.094,78.113 115.094 C 78.321 115.094,78.491 114.840,78.491 114.528 C 78.491 114.217,78.321 113.962,78.113 113.962 C 77.906 113.962,77.736 114.217,77.736 114.528 M78.868 120.566 C 78.868 120.877,79.038 121.132,79.245 121.132 C 79.453 121.132,79.623 120.877,79.623 120.566 C 79.623 120.255,79.453 120.000,79.245 120.000 C 79.038 120.000,78.868 120.255,78.868 120.566 M332.453 152.075 C 332.453 152.491,332.623 152.830,332.830 152.830 C 333.038 152.830,333.208 152.491,333.208 152.075 C 333.208 151.660,333.038 151.321,332.830 151.321 C 332.623 151.321,332.453 151.660,332.453 152.075 M60.755 156.792 C 60.755 157.104,60.925 157.358,61.132 157.358 C 61.340 157.358,61.509 157.104,61.509 156.792 C 61.509 156.481,61.340 156.226,61.132 156.226 C 60.925 156.226,60.755 156.481,60.755 156.792 M331.321 160.566 C 331.321 160.877,331.491 161.132,331.698 161.132 C 331.906 161.132,332.075 160.877,332.075 160.566 C 332.075 160.255,331.906 160.000,331.698 160.000 C 331.491 160.000,331.321 160.255,331.321 160.566 M61.887 165.283 C 61.887 165.698,62.057 166.038,62.264 166.038 C 62.472 166.038,62.642 165.698,62.642 165.283 C 62.642 164.868,62.472 164.528,62.264 164.528 C 62.057 164.528,61.887 164.868,61.887 165.283 M330.189 168.868 C 330.189 169.179,330.358 169.434,330.566 169.434 C 330.774 169.434,330.943 169.179,330.943 168.868 C 330.943 168.557,330.774 168.302,330.566 168.302 C 330.358 168.302,330.189 168.557,330.189 168.868 M62.642 169.623 C 62.642 169.934,62.811 170.189,63.019 170.189 C 63.226 170.189,63.396 169.934,63.396 169.623 C 63.396 169.311,63.226 169.057,63.019 169.057 C 62.811 169.057,62.642 169.311,62.642 169.623 M63.019 173.962 C 63.019 174.377,63.189 174.717,63.396 174.717 C 63.604 174.717,63.774 174.377,63.774 173.962 C 63.774 173.547,63.604 173.208,63.396 173.208 C 63.189 173.208,63.019 173.547,63.019 173.962 M305.660 173.774 C 305.660 174.085,305.830 174.340,306.038 174.340 C 306.245 174.340,306.415 174.085,306.415 173.774 C 306.415 173.462,306.245 173.208,306.038 173.208 C 305.830 173.208,305.660 173.462,305.660 173.774 M329.057 177.358 C 329.057 177.774,329.226 178.113,329.434 178.113 C 329.642 178.113,329.811 177.774,329.811 177.358 C 329.811 176.943,329.642 176.604,329.434 176.604 C 329.226 176.604,329.057 176.943,329.057 177.358 M304.528 181.887 C 304.528 182.302,304.698 182.642,304.906 182.642 C 305.113 182.642,305.283 182.302,305.283 181.887 C 305.283 181.472,305.113 181.132,304.906 181.132 C 304.698 181.132,304.528 181.472,304.528 181.887 M327.925 185.472 C 327.925 185.783,328.094 186.038,328.302 186.038 C 328.509 186.038,328.679 185.783,328.679 185.472 C 328.679 185.160,328.509 184.906,328.302 184.906 C 328.094 184.906,327.925 185.160,327.925 185.472 M88.679 187.547 C 88.679 187.962,88.849 188.302,89.057 188.302 C 89.264 188.302,89.434 187.962,89.434 187.547 C 89.434 187.132,89.264 186.792,89.057 186.792 C 88.849 186.792,88.679 187.132,88.679 187.547 M327.748 189.545 C 327.586 189.917,327.560 190.327,327.689 190.457 C 328.072 190.840,328.381 190.301,328.205 189.558 C 328.049 188.899,328.028 188.898,327.748 189.545 M65.283 191.132 C 65.283 191.443,65.453 191.698,65.660 191.698 C 65.868 191.698,66.038 191.443,66.038 191.132 C 66.038 190.821,65.868 190.566,65.660 190.566 C 65.453 190.566,65.283 190.821,65.283 191.132 M89.057 191.887 C 89.057 192.198,89.226 192.453,89.434 192.453 C 89.642 192.453,89.811 192.198,89.811 191.887 C 89.811 191.575,89.642 191.321,89.434 191.321 C 89.226 191.321,89.057 191.575,89.057 191.887 M303.019 194.528 C 303.019 194.840,303.189 195.094,303.396 195.094 C 303.604 195.094,303.774 194.840,303.774 194.528 C 303.774 194.217,303.604 193.962,303.396 193.962 C 303.189 193.962,303.019 194.217,303.019 194.528 M65.660 195.261 C 65.660 195.560,65.830 195.909,66.038 196.038 C 66.245 196.166,66.415 195.921,66.415 195.494 C 66.415 195.067,66.245 194.717,66.038 194.717 C 65.830 194.717,65.660 194.962,65.660 195.261 M89.811 196.038 C 89.811 196.349,89.981 196.604,90.189 196.604 C 90.396 196.604,90.566 196.349,90.566 196.038 C 90.566 195.726,90.396 195.472,90.189 195.472 C 89.981 195.472,89.811 195.726,89.811 196.038 M326.415 198.113 C 326.415 198.528,326.585 198.868,326.792 198.868 C 327.000 198.868,327.170 198.528,327.170 198.113 C 327.170 197.698,327.000 197.358,326.792 197.358 C 326.585 197.358,326.415 197.698,326.415 198.113 M66.415 199.623 C 66.415 200.038,66.585 200.377,66.792 200.377 C 67.000 200.377,67.170 200.038,67.170 199.623 C 67.170 199.208,67.000 198.868,66.792 198.868 C 66.585 198.868,66.415 199.208,66.415 199.623 M301.887 202.830 C 301.887 203.142,302.057 203.396,302.264 203.396 C 302.472 203.396,302.642 203.142,302.642 202.830 C 302.642 202.519,302.472 202.264,302.264 202.264 C 302.057 202.264,301.887 202.519,301.887 202.830 M66.792 204.151 C 66.792 204.566,66.962 204.906,67.170 204.906 C 67.377 204.906,67.547 204.566,67.547 204.151 C 67.547 203.736,67.377 203.396,67.170 203.396 C 66.962 203.396,66.792 203.736,66.792 204.151 M90.943 204.717 C 90.943 205.028,91.113 205.283,91.321 205.283 C 91.528 205.283,91.698 205.028,91.698 204.717 C 91.698 204.406,91.528 204.151,91.321 204.151 C 91.113 204.151,90.943 204.406,90.943 204.717 M325.283 206.604 C 325.283 206.915,325.453 207.170,325.660 207.170 C 325.868 207.170,326.038 206.915,326.038 206.604 C 326.038 206.292,325.868 206.038,325.660 206.038 C 325.453 206.038,325.283 206.292,325.283 206.604 M91.521 208.413 C 91.360 208.785,91.333 209.195,91.463 209.324 C 91.846 209.708,92.155 209.169,91.979 208.426 C 91.822 207.767,91.802 207.766,91.521 208.413 M67.925 212.830 C 67.925 213.245,68.094 213.585,68.302 213.585 C 68.509 213.585,68.679 213.245,68.679 212.830 C 68.679 212.415,68.509 212.075,68.302 212.075 C 68.094 212.075,67.925 212.415,67.925 212.830 M300.377 215.472 C 300.377 216.176,300.478 216.277,300.830 215.925 C 301.182 215.572,301.182 215.371,300.830 215.019 C 300.478 214.667,300.377 214.767,300.377 215.472 M92.453 217.547 C 92.453 217.858,92.623 218.113,92.830 218.113 C 93.038 218.113,93.208 217.858,93.208 217.547 C 93.208 217.236,93.038 216.981,92.830 216.981 C 92.623 216.981,92.453 217.236,92.453 217.547 M299.623 219.434 C 299.623 219.745,299.792 220.000,300.000 220.000 C 300.208 220.000,300.377 219.745,300.377 219.434 C 300.377 219.123,300.208 218.868,300.000 218.868 C 299.792 218.868,299.623 219.123,299.623 219.434 M69.057 221.321 C 69.057 221.632,69.226 221.887,69.434 221.887 C 69.642 221.887,69.811 221.632,69.811 221.321 C 69.811 221.009,69.642 220.755,69.434 220.755 C 69.226 220.755,69.057 221.009,69.057 221.321 M323.019 223.208 C 323.019 223.519,323.189 223.774,323.396 223.774 C 323.604 223.774,323.774 223.519,323.774 223.208 C 323.774 222.896,323.604 222.642,323.396 222.642 C 323.189 222.642,323.019 222.896,323.019 223.208 M93.585 226.226 C 93.585 226.538,93.755 226.792,93.962 226.792 C 94.170 226.792,94.340 226.538,94.340 226.226 C 94.340 225.915,94.170 225.660,93.962 225.660 C 93.755 225.660,93.585 225.915,93.585 226.226 M322.642 227.358 C 322.642 227.670,322.811 227.925,323.019 227.925 C 323.226 227.925,323.396 227.670,323.396 227.358 C 323.396 227.047,323.226 226.792,323.019 226.792 C 322.811 226.792,322.642 227.047,322.642 227.358 M298.491 227.925 C 298.491 228.340,298.660 228.679,298.868 228.679 C 299.075 228.679,299.245 228.340,299.245 227.925 C 299.245 227.509,299.075 227.170,298.868 227.170 C 298.660 227.170,298.491 227.509,298.491 227.925 M70.189 229.811 C 70.189 230.226,70.358 230.566,70.566 230.566 C 70.774 230.566,70.943 230.226,70.943 229.811 C 70.943 229.396,70.774 229.057,70.566 229.057 C 70.358 229.057,70.189 229.396,70.189 229.811 M321.887 231.509 C 321.887 231.821,322.057 232.075,322.264 232.075 C 322.472 232.075,322.642 231.821,322.642 231.509 C 322.642 231.198,322.472 230.943,322.264 230.943 C 322.057 230.943,321.887 231.198,321.887 231.509 M94.717 234.906 C 94.717 235.217,94.887 235.472,95.094 235.472 C 95.302 235.472,95.472 235.217,95.472 234.906 C 95.472 234.594,95.302 234.340,95.094 234.340 C 94.887 234.340,94.717 234.594,94.717 234.906 M71.321 238.491 C 71.321 238.906,71.491 239.245,71.698 239.245 C 71.906 239.245,72.075 238.906,72.075 238.491 C 72.075 238.075,71.906 237.736,71.698 237.736 C 71.491 237.736,71.321 238.075,71.321 238.491 M296.981 240.566 C 296.981 240.877,297.151 241.132,297.358 241.132 C 297.566 241.132,297.736 240.877,297.736 240.566 C 297.736 240.255,297.566 240.000,297.358 240.000 C 297.151 240.000,296.981 240.255,296.981 240.566 M71.698 243.019 C 71.698 243.434,71.868 243.774,72.075 243.774 C 72.283 243.774,72.453 243.434,72.453 243.019 C 72.453 242.604,72.283 242.264,72.075 242.264 C 71.868 242.264,71.698 242.604,71.698 243.019 M95.849 243.185 C 95.849 243.484,96.019 243.834,96.226 243.962 C 96.434 244.091,96.604 243.846,96.604 243.418 C 96.604 242.991,96.434 242.642,96.226 242.642 C 96.019 242.642,95.849 242.886,95.849 243.185 M320.377 244.151 C 320.377 244.566,320.547 244.906,320.755 244.906 C 320.962 244.906,321.132 244.566,321.132 244.151 C 321.132 243.736,320.962 243.396,320.755 243.396 C 320.547 243.396,320.377 243.736,320.377 244.151 M96.427 247.280 C 96.265 247.653,96.239 248.063,96.368 248.192 C 96.752 248.576,97.061 248.037,96.884 247.294 C 96.728 246.634,96.708 246.634,96.427 247.280 M295.849 248.679 C 295.849 249.094,296.019 249.434,296.226 249.434 C 296.434 249.434,296.604 249.094,296.604 248.679 C 296.604 248.264,296.434 247.925,296.226 247.925 C 296.019 247.925,295.849 248.264,295.849 248.679 M319.245 252.264 C 319.245 252.575,319.415 252.830,319.623 252.830 C 319.830 252.830,320.000 252.575,320.000 252.264 C 320.000 251.953,319.830 251.698,319.623 251.698 C 319.415 251.698,319.245 251.953,319.245 252.264 M97.358 256.415 C 97.358 256.726,97.528 256.981,97.736 256.981 C 97.943 256.981,98.113 256.726,98.113 256.415 C 98.113 256.104,97.943 255.849,97.736 255.849 C 97.528 255.849,97.358 256.104,97.358 256.415 M73.962 260.000 C 73.962 260.415,74.132 260.755,74.340 260.755 C 74.547 260.755,74.717 260.415,74.717 260.000 C 74.717 259.585,74.547 259.245,74.340 259.245 C 74.132 259.245,73.962 259.585,73.962 260.000 M294.340 261.321 C 294.340 261.632,294.509 261.887,294.717 261.887 C 294.925 261.887,295.094 261.632,295.094 261.321 C 295.094 261.009,294.925 260.755,294.717 260.755 C 294.509 260.755,294.340 261.009,294.340 261.321 M74.717 264.151 C 74.717 264.855,74.818 264.956,75.170 264.604 C 75.522 264.252,75.522 264.050,75.170 263.698 C 74.818 263.346,74.717 263.447,74.717 264.151 M317.736 264.906 C 317.736 265.321,317.906 265.660,318.113 265.660 C 318.321 265.660,318.491 265.321,318.491 264.906 C 318.491 264.491,318.321 264.151,318.113 264.151 C 317.906 264.151,317.736 264.491,317.736 264.906 M293.585 265.472 C 293.585 265.783,293.755 266.038,293.962 266.038 C 294.170 266.038,294.340 265.783,294.340 265.472 C 294.340 265.160,294.170 264.906,293.962 264.906 C 293.755 264.906,293.585 265.160,293.585 265.472 M75.094 268.679 C 75.094 269.094,75.264 269.434,75.472 269.434 C 75.679 269.434,75.849 269.094,75.849 268.679 C 75.849 268.264,75.679 267.925,75.472 267.925 C 75.264 267.925,75.094 268.264,75.094 268.679 M293.208 269.412 C 293.208 269.839,293.377 270.189,293.585 270.189 C 293.792 270.189,293.962 269.944,293.962 269.645 C 293.962 269.346,293.792 268.996,293.585 268.868 C 293.377 268.740,293.208 268.984,293.208 269.412 M292.453 273.962 C 292.453 274.377,292.623 274.717,292.830 274.717 C 293.038 274.717,293.208 274.377,293.208 273.962 C 293.208 273.547,293.038 273.208,292.830 273.208 C 292.623 273.208,292.453 273.547,292.453 273.962 M316.017 277.014 C 315.878 277.240,315.953 277.613,316.184 277.844 C 316.492 278.153,316.604 278.044,316.604 277.434 C 316.604 276.523,316.408 276.382,316.017 277.014 M100.168 277.391 C 100.029 277.617,100.104 277.991,100.335 278.222 C 100.643 278.530,100.755 278.421,100.755 277.811 C 100.755 276.900,100.559 276.760,100.168 277.391 M100.755 282.075 C 100.755 282.387,100.925 282.642,101.132 282.642 C 101.340 282.642,101.509 282.387,101.509 282.075 C 101.509 281.764,101.340 281.509,101.132 281.509 C 100.925 281.509,100.755 281.764,100.755 282.075 M101.333 286.148 C 101.171 286.521,101.145 286.931,101.274 287.060 C 101.657 287.444,101.966 286.905,101.790 286.162 C 101.634 285.502,101.613 285.502,101.333 286.148 M290.943 286.415 C 290.943 286.830,291.113 287.170,291.321 287.170 C 291.528 287.170,291.698 286.830,291.698 286.415 C 291.698 286.000,291.528 285.660,291.321 285.660 C 291.113 285.660,290.943 286.000,290.943 286.415 M77.736 290.000 C 77.736 290.311,77.906 290.566,78.113 290.566 C 78.321 290.566,78.491 290.311,78.491 290.000 C 78.491 289.689,78.321 289.434,78.113 289.434 C 77.906 289.434,77.736 289.689,77.736 290.000 M314.340 290.000 C 314.340 290.311,314.509 290.566,314.717 290.566 C 314.925 290.566,315.094 290.311,315.094 290.000 C 315.094 289.689,314.925 289.434,314.717 289.434 C 314.509 289.434,314.340 289.689,314.340 290.000 M101.887 290.755 C 101.887 291.066,102.057 291.321,102.264 291.321 C 102.472 291.321,102.642 291.066,102.642 290.755 C 102.642 290.443,102.472 290.189,102.264 290.189 C 102.057 290.189,101.887 290.443,101.887 290.755 M78.491 294.362 C 78.491 294.789,78.660 295.034,78.868 294.906 C 79.075 294.777,79.245 294.428,79.245 294.129 C 79.245 293.830,79.075 293.585,78.868 293.585 C 78.660 293.585,78.491 293.935,78.491 294.362 M289.811 294.717 C 289.811 295.132,289.981 295.472,290.189 295.472 C 290.396 295.472,290.566 295.132,290.566 294.717 C 290.566 294.302,290.396 293.962,290.189 293.962 C 289.981 293.962,289.811 294.302,289.811 294.717 M313.208 298.302 C 313.208 298.613,313.377 298.868,313.585 298.868 C 313.792 298.868,313.962 298.613,313.962 298.302 C 313.962 297.991,313.792 297.736,313.585 297.736 C 313.377 297.736,313.208 297.991,313.208 298.302 M78.868 298.679 C 78.868 298.991,79.038 299.245,79.245 299.245 C 79.453 299.245,79.623 298.991,79.623 298.679 C 79.623 298.368,79.453 298.113,79.245 298.113 C 79.038 298.113,78.868 298.368,78.868 298.679 M311.899 310.299 C 311.737 310.671,311.711 311.082,311.840 311.211 C 312.223 311.594,312.532 311.056,312.356 310.313 C 312.200 309.653,312.179 309.653,311.899 310.299 M310.566 319.057 C 310.566 319.368,310.736 319.623,310.943 319.623 C 311.151 319.623,311.321 319.368,311.321 319.057 C 311.321 318.745,311.151 318.491,310.943 318.491 C 310.736 318.491,310.566 318.745,310.566 319.057 M309.980 323.052 C 309.840 323.277,309.915 323.651,310.146 323.882 C 310.454 324.190,310.566 324.081,310.566 323.472 C 310.566 322.561,310.370 322.420,309.980 323.052 M82.264 324.551 C 82.264 324.978,82.434 325.223,82.642 325.094 C 82.849 324.966,83.019 324.616,83.019 324.317 C 83.019 324.018,82.849 323.774,82.642 323.774 C 82.434 323.774,82.264 324.123,82.264 324.551 " stroke="none" fill="#5f5949" fill-rule="evenodd"></path><path id="path2" d="M60.377 143.775 C 60.377 144.027,105.916 144.152,196.981 144.150 C 287.300 144.148,333.585 144.020,333.585 143.772 C 333.585 143.523,287.302 143.396,196.981 143.396 C 105.918 143.396,60.377 143.522,60.377 143.775 M61.258 156.010 C 61.496 156.514,61.750 156.866,61.823 156.793 C 62.057 156.559,61.470 155.094,61.142 155.094 C 60.968 155.094,61.020 155.506,61.258 156.010 M86.211 167.195 C 86.074 167.416,86.022 167.629,86.094 167.667 C 86.676 167.971,307.170 167.475,307.170 167.169 C 307.170 166.623,86.548 166.650,86.211 167.195 M71.710 241.226 C 71.704 241.590,71.856 241.887,72.049 241.887 C 72.242 241.887,72.474 242.269,72.564 242.736 C 72.713 243.509,72.732 243.515,72.779 242.808 C 72.807 242.381,72.581 241.701,72.276 241.299 C 71.775 240.636,71.721 240.629,71.710 241.226 M76.604 280.000 C 76.604 280.208,76.774 280.377,76.981 280.377 C 77.189 280.377,77.358 280.660,77.358 281.006 C 77.358 281.352,77.459 281.535,77.582 281.412 C 77.896 281.097,77.381 279.623,76.956 279.623 C 76.762 279.623,76.604 279.792,76.604 280.000 M309.434 326.226 C 309.434 326.538,309.604 326.792,309.811 326.792 C 310.019 326.792,310.189 326.538,310.189 326.226 C 310.189 325.915,310.019 325.660,309.811 325.660 C 309.604 325.660,309.434 325.915,309.434 326.226 " stroke="none" fill="#9c9474" fill-rule="evenodd"></path><path id="path3" d="M75.094 98.679 C 75.094 98.991,75.264 99.245,75.472 99.245 C 75.679 99.245,75.849 98.991,75.849 98.679 C 75.849 98.368,75.679 98.113,75.472 98.113 C 75.264 98.113,75.094 98.368,75.094 98.679 M81.515 319.340 C 81.519 320.173,81.625 320.402,81.846 320.053 C 82.143 319.584,81.997 318.113,81.654 318.113 C 81.575 318.113,81.512 318.665,81.515 319.340 " stroke="none" fill="#958c6d" fill-rule="evenodd"></path><path id="path4" d="M298.355 55.000 C 297.792 57.003,297.677 58.194,298.073 57.949 C 298.303 57.807,298.491 57.107,298.491 56.393 C 298.491 55.679,298.660 55.094,298.868 55.094 C 299.075 55.094,299.245 54.925,299.245 54.717 C 299.245 54.079,298.553 54.299,298.355 55.000 M94.951 56.757 C 94.763 57.498,94.830 57.950,95.156 58.151 C 95.856 58.584,95.933 58.351,95.561 56.928 L 95.229 55.660 94.951 56.757 M297.240 59.868 C 296.757 61.615,296.583 63.574,296.961 63.019 C 297.173 62.708,297.350 62.000,297.353 61.447 C 297.356 60.893,297.571 60.362,297.830 60.267 C 298.187 60.137,298.196 59.982,297.868 59.632 C 297.529 59.271,297.391 59.323,297.240 59.868 M95.849 62.642 C 95.849 62.849,96.019 63.019,96.226 63.019 C 96.434 63.019,96.606 63.486,96.610 64.057 C 96.613 64.627,96.789 65.349,97.001 65.660 C 97.363 66.192,97.201 64.100,96.775 62.736 C 96.600 62.176,95.849 62.099,95.849 62.642 M295.686 67.101 C 295.527 67.997,295.499 68.832,295.623 68.956 C 295.747 69.081,295.849 68.829,295.849 68.396 C 295.849 67.964,295.987 67.553,296.156 67.484 C 296.326 67.415,296.354 66.934,296.220 66.415 C 296.005 65.589,295.939 65.673,295.686 67.101 M96.993 67.264 C 96.987 67.627,97.173 67.925,97.408 67.925 C 97.683 67.925,97.760 68.383,97.625 69.216 C 97.470 70.170,97.568 70.565,97.999 70.731 C 98.453 70.905,98.531 70.766,98.353 70.100 C 98.227 69.630,98.121 68.981,98.118 68.657 C 98.110 67.750,97.009 66.386,96.993 67.264 M294.563 72.214 C 294.413 73.010,294.387 73.758,294.504 73.875 C 294.621 73.992,294.717 73.819,294.717 73.491 C 294.717 73.162,294.926 72.823,295.181 72.738 C 295.530 72.622,295.544 72.357,295.240 71.675 C 294.848 70.796,294.825 70.814,294.563 72.214 M98.902 73.648 C 98.883 73.995,98.765 74.547,98.639 74.875 C 98.489 75.266,98.618 75.472,99.016 75.472 C 99.350 75.472,99.623 75.642,99.623 75.849 C 99.623 76.624,293.603 76.342,294.192 75.566 C 294.796 74.769,294.848 74.340,294.340 74.340 C 294.132 74.340,293.962 74.594,293.962 74.906 C 293.962 75.407,282.915 75.472,196.803 75.472 L 99.644 75.472 99.290 74.245 C 99.095 73.571,98.921 73.302,98.902 73.648 M75.904 99.779 C 75.856 100.696,75.998 101.557,76.220 101.694 C 76.493 101.863,76.543 101.451,76.376 100.405 L 76.130 98.868 196.744 98.868 C 276.902 98.868,317.358 98.741,317.358 98.491 C 317.358 98.240,276.879 98.113,196.674 98.113 L 75.990 98.113 75.904 99.779 M316.480 102.978 C 316.110 104.826,316.160 105.026,316.823 104.363 C 317.273 103.913,317.335 103.515,317.076 102.738 L 316.733 101.710 316.480 102.978 M76.226 103.962 C 76.226 104.274,76.418 104.528,76.653 104.528 C 76.929 104.528,77.005 104.988,76.869 105.826 C 76.723 106.726,76.833 107.267,77.228 107.595 C 77.805 108.074,77.788 107.398,77.141 104.245 C 76.947 103.299,76.226 103.076,76.226 103.962 M315.849 106.815 C 315.849 107.242,316.019 107.487,316.226 107.358 C 316.434 107.230,316.604 106.881,316.604 106.582 C 316.604 106.282,316.434 106.038,316.226 106.038 C 316.019 106.038,315.849 106.387,315.849 106.815 M315.290 109.508 C 315.140 110.275,315.107 111.124,315.215 111.395 C 315.323 111.665,315.426 111.519,315.442 111.069 C 315.458 110.619,315.681 110.182,315.936 110.097 C 316.289 109.979,316.300 109.723,315.981 109.028 C 315.570 108.132,315.556 108.141,315.290 109.508 M77.927 112.450 C 77.795 112.662,77.953 113.102,78.278 113.426 C 78.813 113.961,78.868 113.946,78.868 113.257 C 78.868 112.383,78.279 111.879,77.927 112.450 M78.491 115.660 C 78.491 115.972,78.660 116.226,78.868 116.226 C 79.075 116.226,79.245 115.972,79.245 115.660 C 79.245 115.349,79.075 115.094,78.868 115.094 C 78.660 115.094,78.491 115.349,78.491 115.660 M314.171 115.566 C 313.746 116.944,313.601 119.280,313.953 119.062 C 314.166 118.931,314.340 118.154,314.340 117.336 C 314.340 116.518,314.509 115.849,314.717 115.849 C 314.925 115.849,315.094 115.679,315.094 115.472 C 315.094 114.929,314.343 115.006,314.171 115.566 M78.868 118.486 C 78.868 118.726,79.138 119.192,79.468 119.522 C 80.017 120.071,80.058 120.047,79.940 119.242 C 79.810 118.349,78.868 117.685,78.868 118.486 M128.427 144.434 C 166.165 144.487,227.807 144.487,265.408 144.434 C 303.009 144.381,272.132 144.338,196.792 144.338 C 121.453 144.338,90.688 144.381,128.427 144.434 M60.006 145.544 C 60.009 145.919,60.176 146.481,60.377 146.792 C 60.663 147.235,60.744 147.137,60.749 146.343 C 60.752 145.785,60.585 145.223,60.377 145.094 C 60.170 144.966,60.003 145.168,60.006 145.544 M332.830 145.660 C 332.830 146.075,333.000 146.415,333.208 146.415 C 333.415 146.415,333.585 146.075,333.585 145.660 C 333.585 145.245,333.415 144.906,333.208 144.906 C 333.000 144.906,332.830 145.245,332.830 145.660 M60.377 149.547 C 60.377 150.108,60.536 150.566,60.731 150.566 C 60.925 150.566,61.158 151.033,61.248 151.604 C 61.338 152.175,61.347 151.884,61.268 150.959 C 61.106 149.053,60.377 147.899,60.377 149.547 M332.234 149.984 C 332.107 150.494,332.090 151.131,332.198 151.399 C 332.322 151.710,332.404 151.647,332.423 151.226 C 332.439 150.863,332.623 150.566,332.830 150.566 C 333.038 150.566,333.208 150.226,333.208 149.811 C 333.208 148.748,332.514 148.871,332.234 149.984 M60.755 153.943 C 60.755 154.398,61.009 155.026,61.321 155.337 C 61.824 155.840,61.887 155.800,61.887 154.979 C 61.887 154.471,61.632 153.843,61.321 153.585 C 60.847 153.192,60.755 153.250,60.755 153.943 M331.698 154.173 C 331.698 154.721,331.861 155.038,332.075 154.906 C 332.283 154.777,332.453 154.343,332.453 153.940 C 332.453 153.537,332.283 153.208,332.075 153.208 C 331.868 153.208,331.698 153.642,331.698 154.173 M331.106 158.272 C 330.980 158.774,330.957 159.496,331.055 159.876 C 331.199 160.432,331.242 160.401,331.277 159.717 C 331.301 159.250,331.491 158.868,331.698 158.868 C 331.906 158.868,332.075 158.528,332.075 158.113 C 332.075 157.056,331.383 157.170,331.106 158.272 M61.509 158.491 C 61.509 158.906,61.679 159.245,61.887 159.245 C 62.094 159.245,62.264 158.906,62.264 158.491 C 62.264 158.075,62.094 157.736,61.887 157.736 C 61.679 157.736,61.509 158.075,61.509 158.491 M330.849 161.727 C 330.693 161.884,330.566 162.358,330.566 162.780 C 330.566 163.335,330.680 163.433,330.979 163.134 C 331.206 162.907,331.333 162.434,331.262 162.082 C 331.190 161.730,331.005 161.570,330.849 161.727 M61.887 162.799 C 61.887 163.127,62.044 163.396,62.236 163.396 C 62.429 163.396,62.672 163.693,62.776 164.057 C 62.880 164.420,62.935 164.221,62.898 163.614 C 62.828 162.482,61.887 161.723,61.887 162.799 M329.979 166.961 C 329.845 167.676,329.824 168.483,329.932 168.753 C 330.040 169.024,330.143 168.778,330.159 168.208 C 330.175 167.637,330.358 167.170,330.566 167.170 C 330.774 167.170,330.943 166.830,330.943 166.415 C 330.943 165.167,330.241 165.565,329.979 166.961 M62.642 167.170 C 62.642 167.585,62.811 167.925,63.019 167.925 C 63.226 167.925,63.396 167.585,63.396 167.170 C 63.396 166.755,63.226 166.415,63.019 166.415 C 62.811 166.415,62.642 166.755,62.642 167.170 M85.666 167.642 C 85.675 168.961,86.304 169.784,86.638 168.914 C 86.795 168.505,86.707 168.105,86.422 167.929 C 86.157 167.765,86.058 167.443,86.200 167.212 C 86.343 166.981,86.280 166.792,86.060 166.792 C 85.840 166.792,85.663 167.175,85.666 167.642 M307.009 167.422 C 306.876 167.768,306.943 168.226,307.157 168.440 C 307.426 168.709,307.547 168.512,307.547 167.811 C 307.547 166.647,307.359 166.511,307.009 167.422 M329.717 170.029 C 329.561 170.186,329.439 170.753,329.445 171.289 C 329.456 172.145,329.505 172.182,329.848 171.592 C 330.278 170.854,330.170 169.572,329.717 170.029 M86.094 170.613 C 86.000 171.638,86.488 173.585,86.840 173.585 C 87.021 173.585,87.170 173.245,87.170 172.830 C 87.170 172.415,87.011 172.075,86.818 172.075 C 86.624 172.075,86.394 171.608,86.308 171.038 C 86.222 170.467,86.125 170.276,86.094 170.613 M63.173 171.086 C 63.028 171.465,63.084 171.885,63.298 172.019 C 63.511 172.154,63.771 172.604,63.875 173.019 C 64.008 173.552,64.075 173.441,64.101 172.642 C 64.152 171.125,63.547 170.111,63.173 171.086 M306.650 171.255 C 306.483 171.737,306.447 172.233,306.569 172.355 C 306.960 172.747,307.235 172.170,307.092 171.259 L 306.953 170.377 306.650 171.255 M306.472 174.591 C 306.441 175.041,306.215 175.476,305.970 175.557 C 305.694 175.649,305.632 175.984,305.807 176.438 C 306.215 177.497,306.900 176.220,306.684 174.802 C 306.566 174.020,306.515 173.969,306.472 174.591 M328.911 175.377 C 328.326 179.290,328.253 180.559,328.647 180.000 C 328.866 179.689,329.048 178.542,329.051 177.453 C 329.054 176.363,329.226 175.472,329.434 175.472 C 329.642 175.472,329.811 175.132,329.811 174.717 C 329.811 173.403,329.132 173.902,328.911 175.377 M63.774 175.827 C 63.774 176.230,63.943 176.664,64.151 176.792 C 64.365 176.925,64.528 176.608,64.528 176.060 C 64.528 175.529,64.358 175.094,64.151 175.094 C 63.943 175.094,63.774 175.424,63.774 175.827 M86.798 176.298 C 86.795 176.857,86.962 177.419,87.170 177.547 C 87.652 177.845,87.652 176.595,87.170 175.849 C 86.884 175.406,86.803 175.504,86.798 176.298 M87.428 180.566 C 87.615 182.353,88.302 183.302,88.302 181.774 C 88.302 181.213,88.143 180.755,87.950 180.755 C 87.756 180.755,87.524 180.373,87.434 179.906 C 87.343 179.439,87.341 179.736,87.428 180.566 M64.151 180.000 C 64.151 180.415,64.321 180.755,64.528 180.755 C 64.736 180.755,64.931 181.307,64.962 181.981 C 65.018 183.187,65.021 183.189,65.180 182.124 C 65.378 180.798,65.023 179.245,64.521 179.245 C 64.318 179.245,64.151 179.585,64.151 180.000 M305.566 179.463 C 305.410 179.620,305.283 180.094,305.283 180.516 C 305.283 181.071,305.397 181.169,305.696 180.870 C 305.923 180.643,306.050 180.170,305.979 179.818 C 305.907 179.466,305.722 179.306,305.566 179.463 M328.125 182.752 C 327.963 183.124,327.937 183.535,328.067 183.664 C 328.450 184.047,328.759 183.509,328.582 182.765 C 328.426 182.106,328.406 182.106,328.125 182.752 M305.313 183.113 C 305.296 183.476,305.113 183.774,304.906 183.774 C 304.698 183.774,304.528 184.113,304.528 184.528 C 304.528 184.943,304.695 185.283,304.898 185.283 C 305.352 185.283,305.808 183.613,305.538 182.941 C 305.414 182.630,305.332 182.693,305.313 183.113 M64.911 184.245 C 64.925 185.322,65.649 185.874,65.655 184.811 C 65.658 184.241,65.491 183.774,65.283 183.774 C 65.075 183.774,64.908 183.986,64.911 184.245 M87.930 184.978 C 87.927 185.536,88.094 186.098,88.302 186.226 C 88.784 186.524,88.784 185.274,88.302 184.528 C 88.016 184.086,87.935 184.183,87.930 184.978 M327.421 187.044 C 327.283 187.182,327.190 187.734,327.214 188.270 C 327.242 188.910,327.317 189.018,327.430 188.585 C 327.525 188.222,327.760 187.925,327.952 187.925 C 328.145 187.925,328.302 187.670,328.302 187.358 C 328.302 186.769,327.856 186.610,327.421 187.044 M304.403 187.799 C 304.011 188.190,304.107 189.434,304.528 189.434 C 304.736 189.434,304.906 189.009,304.906 188.491 C 304.906 187.503,304.818 187.383,304.403 187.799 M65.283 188.679 C 65.283 189.094,65.453 189.434,65.660 189.434 C 65.868 189.434,66.057 189.986,66.082 190.660 C 66.107 191.372,66.201 191.594,66.305 191.189 C 66.552 190.230,66.085 187.925,65.643 187.925 C 65.445 187.925,65.283 188.264,65.283 188.679 M88.372 188.679 C 88.344 190.222,88.899 191.319,89.260 190.434 C 89.419 190.042,89.373 189.627,89.155 189.490 C 88.941 189.356,88.682 188.906,88.578 188.491 C 88.425 187.877,88.386 187.912,88.372 188.679 M304.202 191.415 C 304.174 191.778,303.981 192.075,303.774 192.075 C 303.566 192.075,303.396 192.415,303.396 192.830 C 303.396 193.698,304.074 193.847,304.381 193.046 C 304.495 192.750,304.513 192.113,304.421 191.631 C 304.316 191.079,304.235 190.999,304.202 191.415 M326.792 191.720 C 326.792 192.148,326.962 192.392,327.170 192.264 C 327.377 192.136,327.547 191.786,327.547 191.487 C 327.547 191.188,327.377 190.943,327.170 190.943 C 326.962 190.943,326.792 191.293,326.792 191.720 M66.064 192.714 C 66.120 194.144,66.737 195.013,66.766 193.702 C 66.781 193.039,66.623 192.392,66.415 192.264 C 66.208 192.136,66.050 192.338,66.064 192.714 M89.057 193.918 C 89.057 194.333,89.226 194.777,89.434 194.906 C 89.642 195.034,89.811 194.799,89.811 194.384 C 89.811 193.969,89.642 193.524,89.434 193.396 C 89.226 193.268,89.057 193.503,89.057 193.918 M303.774 195.031 C 303.774 195.689,303.604 196.226,303.396 196.226 C 303.189 196.226,303.019 196.566,303.019 196.981 C 303.019 197.396,303.178 197.736,303.373 197.736 C 303.783 197.736,304.357 194.420,304.008 194.071 C 303.879 193.942,303.774 194.374,303.774 195.031 M326.197 196.022 C 326.069 196.532,326.052 197.168,326.160 197.437 C 326.267 197.705,326.369 197.542,326.385 197.075 C 326.402 196.608,326.585 196.226,326.792 196.226 C 327.000 196.226,327.170 195.972,327.170 195.660 C 327.170 194.745,326.450 195.012,326.197 196.022 M66.415 197.358 C 66.415 197.774,66.585 198.113,66.792 198.113 C 67.000 198.113,67.170 198.651,67.170 199.308 C 67.170 199.965,67.275 200.398,67.404 200.269 C 67.754 199.919,67.180 196.604,66.769 196.604 C 66.575 196.604,66.415 196.943,66.415 197.358 M89.556 197.707 C 89.628 199.096,90.566 199.854,90.566 198.522 C 90.566 198.090,90.409 197.736,90.216 197.736 C 90.024 197.736,89.782 197.439,89.678 197.075 C 89.575 196.712,89.520 196.996,89.556 197.707 M325.666 200.283 C 325.671 201.092,325.753 201.196,326.038 200.755 C 326.515 200.016,326.515 199.245,326.038 199.245 C 325.830 199.245,325.663 199.712,325.666 200.283 M302.921 200.125 C 302.484 201.207,302.562 202.117,303.051 201.628 C 303.276 201.403,303.402 200.817,303.330 200.327 C 303.216 199.541,303.167 199.517,302.921 200.125 M66.923 201.335 C 66.791 201.680,66.852 202.073,67.058 202.208 C 67.265 202.343,67.531 202.708,67.649 203.019 C 67.768 203.330,67.878 203.043,67.895 202.381 C 67.928 201.040,67.297 200.361,66.923 201.335 M90.189 202.808 C 90.189 203.339,90.358 203.774,90.566 203.774 C 90.774 203.774,90.943 203.444,90.943 203.041 C 90.943 202.638,90.774 202.204,90.566 202.075 C 90.352 201.943,90.189 202.260,90.189 202.808 M302.685 203.302 C 302.661 203.976,302.472 204.528,302.264 204.528 C 302.057 204.528,301.887 204.868,301.887 205.283 C 301.887 205.698,302.049 206.038,302.247 206.038 C 302.689 206.038,303.156 203.733,302.909 202.774 C 302.805 202.369,302.711 202.591,302.685 203.302 M325.070 204.301 C 324.945 204.799,324.919 205.606,325.012 206.094 C 325.142 206.782,325.192 206.707,325.232 205.755 C 325.260 205.080,325.453 204.528,325.660 204.528 C 325.868 204.528,326.038 204.274,326.038 203.962 C 326.038 203.057,325.319 203.309,325.070 204.301 M67.547 205.827 C 67.547 206.126,67.717 206.476,67.925 206.604 C 68.132 206.732,68.302 206.487,68.302 206.060 C 68.302 205.633,68.132 205.283,67.925 205.283 C 67.717 205.283,67.547 205.528,67.547 205.827 M90.568 206.258 C 90.567 206.898,90.666 207.521,90.788 207.644 C 90.910 207.766,91.057 208.733,91.114 209.794 C 91.219 211.733,91.484 212.416,91.950 211.949 C 92.089 211.810,91.983 211.286,91.714 210.784 C 91.416 210.227,91.320 209.368,91.468 208.577 C 91.627 207.731,91.513 206.902,91.141 206.188 L 90.571 205.094 90.568 206.258 M324.811 207.765 C 324.656 207.922,324.528 208.396,324.528 208.818 C 324.528 209.373,324.642 209.471,324.941 209.172 C 325.168 208.945,325.295 208.471,325.224 208.119 C 325.153 207.767,324.967 207.608,324.811 207.765 M301.761 208.553 C 301.370 208.945,301.465 210.189,301.887 210.189 C 302.094 210.189,302.264 209.764,302.264 209.245 C 302.264 208.257,302.177 208.137,301.761 208.553 M67.925 210.189 C 67.925 210.604,68.094 210.943,68.302 210.943 C 68.509 210.943,68.693 211.241,68.709 211.604 C 68.728 212.024,68.810 212.087,68.935 211.776 C 69.204 211.104,68.748 209.434,68.295 209.434 C 68.091 209.434,67.925 209.774,67.925 210.189 M301.561 211.792 C 301.533 212.363,301.340 212.830,301.132 212.830 C 300.925 212.830,300.755 213.170,300.755 213.585 C 300.755 214.000,300.921 214.340,301.125 214.340 C 301.611 214.340,301.994 212.765,301.781 211.642 C 301.627 210.834,301.608 210.847,301.561 211.792 M323.941 212.999 C 323.807 213.714,323.786 214.520,323.894 214.791 C 324.003 215.062,324.105 214.816,324.121 214.245 C 324.138 213.675,324.321 213.208,324.528 213.208 C 324.736 213.208,324.906 212.868,324.906 212.453 C 324.906 211.205,324.203 211.603,323.941 212.999 M68.685 214.034 C 68.682 214.593,68.849 215.155,69.057 215.283 C 69.538 215.581,69.538 214.331,69.057 213.585 C 68.770 213.142,68.690 213.240,68.685 214.034 M91.704 215.166 C 91.701 215.725,91.868 216.287,92.075 216.415 C 92.557 216.713,92.557 215.463,92.075 214.717 C 91.789 214.274,91.708 214.372,91.704 215.166 M323.679 216.067 C 323.524 216.224,323.401 216.791,323.408 217.327 C 323.418 218.182,323.467 218.219,323.810 217.630 C 324.240 216.891,324.133 215.610,323.679 216.067 M92.242 218.604 C 92.367 220.447,92.630 221.081,93.082 220.628 C 93.221 220.490,93.143 219.994,92.909 219.528 C 92.676 219.061,92.402 218.255,92.302 217.736 C 92.201 217.217,92.174 217.607,92.242 218.604 M300.578 217.469 C 300.416 217.841,300.390 218.252,300.519 218.381 C 300.903 218.764,301.212 218.226,301.035 217.482 C 300.879 216.823,300.858 216.823,300.578 217.469 M69.057 218.868 C 69.057 219.283,69.226 219.623,69.434 219.623 C 69.642 219.623,69.834 220.090,69.863 220.660 C 69.910 221.606,69.929 221.619,70.083 220.811 C 70.296 219.688,69.913 218.113,69.427 218.113 C 69.223 218.113,69.057 218.453,69.057 218.868 M300.429 220.660 C 300.400 221.127,300.208 221.509,300.000 221.509 C 299.792 221.509,299.623 221.764,299.623 222.075 C 299.623 222.795,300.335 222.815,300.608 222.103 C 300.721 221.807,300.739 221.170,300.647 220.688 L 300.480 219.811 300.429 220.660 M322.808 221.716 C 322.666 222.659,322.656 223.536,322.785 223.665 C 322.914 223.794,323.019 223.362,323.019 222.704 C 323.019 222.047,323.189 221.509,323.396 221.509 C 323.604 221.509,323.774 221.170,323.774 220.755 C 323.774 219.307,323.063 220.013,322.808 221.716 M69.811 222.974 C 69.811 223.389,69.981 223.834,70.189 223.962 C 70.396 224.091,70.566 223.856,70.566 223.441 C 70.566 223.026,70.396 222.581,70.189 222.453 C 69.981 222.325,69.811 222.559,69.811 222.974 M92.836 223.846 C 92.833 224.404,93.000 224.966,93.208 225.094 C 93.689 225.392,93.689 224.142,93.208 223.396 C 92.921 222.953,92.840 223.051,92.836 223.846 M322.522 224.396 C 322.380 224.538,322.265 225.178,322.266 225.818 L 322.269 226.981 322.844 225.879 C 323.369 224.872,323.133 223.785,322.522 224.396 M299.446 225.771 C 299.284 226.143,299.258 226.554,299.387 226.683 C 299.771 227.066,300.079 226.528,299.903 225.784 C 299.747 225.125,299.726 225.124,299.446 225.771 M93.273 226.604 C 93.204 228.025,93.569 229.434,94.006 229.434 C 94.190 229.434,94.340 229.094,94.340 228.679 C 94.340 228.264,94.181 227.925,93.986 227.925 C 93.792 227.925,93.564 227.373,93.481 226.698 L 93.328 225.472 93.273 226.604 M70.201 227.075 C 70.194 227.542,70.347 227.925,70.541 227.925 C 70.735 227.925,70.964 228.392,71.050 228.962 C 71.206 229.987,71.208 229.985,71.264 228.846 C 71.295 228.211,71.071 227.362,70.767 226.959 C 70.227 226.245,70.212 226.248,70.201 227.075 M321.887 229.268 C 321.887 229.815,322.050 230.132,322.264 230.000 C 322.472 229.872,322.642 229.437,322.642 229.034 C 322.642 228.631,322.472 228.302,322.264 228.302 C 322.057 228.302,321.887 228.736,321.887 229.268 M299.289 229.173 C 299.265 229.549,299.075 229.751,298.868 229.623 C 298.660 229.494,298.491 229.739,298.491 230.166 C 298.491 230.594,298.666 230.943,298.880 230.943 C 299.399 230.943,299.729 230.018,299.510 229.173 C 299.339 228.515,299.331 228.515,299.289 229.173 M70.949 231.582 C 70.952 231.957,71.120 232.519,71.321 232.830 C 71.607 233.273,71.688 233.175,71.692 232.381 C 71.696 231.822,71.528 231.260,71.321 231.132 C 71.113 231.004,70.946 231.206,70.949 231.582 M93.968 232.547 C 93.965 233.118,94.132 233.585,94.340 233.585 C 94.817 233.585,94.817 232.814,94.340 232.075 C 94.055 231.634,93.973 231.739,93.968 232.547 M298.868 232.556 C 298.868 233.098,298.698 233.645,298.491 233.774 C 298.018 234.065,297.993 235.094,298.457 235.094 C 298.858 235.094,299.430 232.134,299.094 231.798 C 298.970 231.674,298.868 232.015,298.868 232.556 M321.291 233.380 C 321.163 233.890,321.146 234.527,321.254 234.795 C 321.379 235.106,321.461 235.043,321.480 234.623 C 321.496 234.259,321.679 233.962,321.887 233.962 C 322.094 233.962,322.264 233.623,322.264 233.208 C 322.264 232.144,321.570 232.267,321.291 233.380 M71.321 235.849 C 71.321 236.264,71.491 236.604,71.698 236.604 C 71.906 236.604,72.089 237.241,72.105 238.019 C 72.122 238.797,72.224 239.211,72.333 238.939 C 72.624 238.213,72.090 235.094,71.675 235.094 C 71.480 235.094,71.321 235.434,71.321 235.849 M94.391 235.913 C 94.330 237.113,94.668 238.113,95.135 238.113 C 95.320 238.113,95.472 237.774,95.472 237.358 C 95.472 236.943,95.314 236.604,95.121 236.604 C 94.927 236.604,94.696 236.222,94.606 235.755 C 94.462 235.005,94.436 235.023,94.391 235.913 M321.038 236.821 C 320.882 236.978,320.755 237.452,320.755 237.874 C 320.755 238.430,320.869 238.528,321.167 238.229 C 321.394 238.002,321.522 237.528,321.450 237.176 C 321.379 236.824,321.193 236.665,321.038 236.821 M298.165 237.475 C 298.136 237.851,297.943 238.053,297.736 237.925 C 297.528 237.796,297.358 238.031,297.358 238.446 C 297.358 238.861,297.530 239.306,297.739 239.436 C 298.239 239.745,298.593 238.772,298.383 237.669 C 298.269 237.072,298.200 237.010,298.165 237.475 M71.710 240.063 C 71.717 240.340,71.984 240.906,72.303 241.321 C 72.863 242.048,72.880 242.035,72.763 240.972 C 72.644 239.895,71.686 239.067,71.710 240.063 M297.736 241.069 C 297.736 241.726,297.566 242.264,297.358 242.264 C 297.151 242.264,296.981 242.604,296.981 243.019 C 296.981 243.434,297.141 243.774,297.335 243.774 C 297.746 243.774,298.320 240.458,297.970 240.108 C 297.841 239.980,297.736 240.412,297.736 241.069 M95.094 241.298 C 95.094 241.830,95.264 242.264,95.472 242.264 C 95.679 242.264,95.849 241.935,95.849 241.532 C 95.849 241.129,95.679 240.694,95.472 240.566 C 95.258 240.434,95.094 240.751,95.094 241.298 M320.162 241.668 C 320.036 242.171,320.013 242.892,320.111 243.272 C 320.255 243.828,320.298 243.797,320.334 243.113 C 320.358 242.646,320.547 242.264,320.755 242.264 C 320.962 242.264,321.132 241.925,321.132 241.509 C 321.132 240.452,320.439 240.566,320.162 241.668 M72.453 244.317 C 72.453 244.848,72.623 245.283,72.830 245.283 C 73.038 245.283,73.208 244.953,73.208 244.551 C 73.208 244.148,73.038 243.713,72.830 243.585 C 72.616 243.453,72.453 243.770,72.453 244.317 M95.521 244.717 C 95.470 246.234,96.076 247.247,96.450 246.272 C 96.595 245.894,96.539 245.474,96.325 245.339 C 96.111 245.205,95.852 244.755,95.748 244.340 C 95.615 243.807,95.548 243.918,95.521 244.717 M319.906 245.123 C 319.750 245.280,319.623 245.754,319.623 246.176 C 319.623 246.731,319.737 246.829,320.035 246.531 C 320.262 246.304,320.390 245.830,320.318 245.478 C 320.247 245.126,320.061 244.966,319.906 245.123 M296.833 246.257 C 296.707 246.586,296.604 247.689,296.604 248.710 C 296.604 249.731,296.434 250.566,296.226 250.566 C 296.019 250.566,295.849 250.906,295.849 251.321 C 295.849 252.445,296.514 252.233,296.739 251.038 C 297.383 247.611,297.441 244.672,296.833 246.257 M72.830 248.633 C 72.830 249.074,72.988 249.434,73.181 249.434 C 73.374 249.434,73.606 249.816,73.696 250.283 C 73.819 250.922,73.872 250.840,73.911 249.952 C 73.939 249.303,73.708 248.560,73.396 248.302 C 72.923 247.909,72.830 247.964,72.830 248.633 M319.034 250.772 C 318.893 251.716,318.882 252.593,319.011 252.722 C 319.140 252.851,319.245 252.418,319.245 251.761 C 319.245 251.104,319.415 250.566,319.623 250.566 C 319.830 250.566,320.000 250.226,320.000 249.811 C 320.000 248.363,319.290 249.070,319.034 250.772 M96.226 250.189 C 96.226 250.604,96.396 250.943,96.604 250.943 C 96.811 250.943,96.981 250.604,96.981 250.189 C 96.981 249.774,96.811 249.434,96.604 249.434 C 96.396 249.434,96.226 249.774,96.226 250.189 M73.585 253.185 C 73.585 253.588,73.755 254.023,73.962 254.151 C 74.176 254.283,74.340 253.966,74.340 253.418 C 74.340 252.887,74.170 252.453,73.962 252.453 C 73.755 252.453,73.585 252.782,73.585 253.185 M96.630 253.657 C 96.616 254.215,96.774 254.777,96.981 254.906 C 97.432 255.184,97.432 254.445,96.981 253.396 C 96.692 252.722,96.654 252.750,96.630 253.657 M318.774 253.425 C 318.618 253.582,318.501 254.234,318.514 254.874 C 318.538 256.012,318.547 256.017,318.906 255.118 C 319.310 254.106,319.222 252.973,318.774 253.425 M295.755 254.557 C 295.599 254.714,295.472 255.188,295.472 255.610 C 295.472 256.165,295.586 256.263,295.884 255.965 C 296.111 255.738,296.239 255.264,296.167 254.912 C 296.096 254.560,295.910 254.400,295.755 254.557 M97.047 256.792 C 96.977 258.214,97.342 259.623,97.780 259.623 C 97.963 259.623,98.113 259.283,98.113 258.868 C 98.113 258.453,97.954 258.113,97.760 258.113 C 97.565 258.113,97.338 257.561,97.254 256.887 L 97.102 255.660 97.047 256.792 M73.962 257.358 C 73.962 257.774,74.132 258.113,74.340 258.113 C 74.547 258.113,74.737 258.495,74.761 258.962 C 74.796 259.646,74.839 259.677,74.983 259.121 C 75.218 258.213,74.802 256.604,74.332 256.604 C 74.129 256.604,73.962 256.943,73.962 257.358 M295.501 258.208 C 295.485 258.571,295.302 258.868,295.094 258.868 C 294.887 258.868,294.717 259.208,294.717 259.623 C 294.717 260.038,294.884 260.377,295.087 260.377 C 295.540 260.377,295.997 258.707,295.727 258.035 C 295.602 257.724,295.520 257.787,295.501 258.208 M317.920 259.271 C 317.778 260.115,317.763 260.907,317.887 261.032 C 318.011 261.156,318.113 260.815,318.113 260.274 C 318.113 259.733,318.283 259.185,318.491 259.057 C 318.963 258.765,318.989 257.736,318.524 257.736 C 318.334 257.736,318.063 258.427,317.920 259.271 M74.717 261.865 C 74.717 262.267,74.887 262.702,75.094 262.830 C 75.308 262.962,75.472 262.645,75.472 262.098 C 75.472 261.567,75.302 261.132,75.094 261.132 C 74.887 261.132,74.717 261.462,74.717 261.865 M97.742 262.336 C 97.738 262.895,97.906 263.457,98.113 263.585 C 98.595 263.883,98.595 262.632,98.113 261.887 C 97.827 261.444,97.746 261.542,97.742 262.336 M317.610 262.138 C 317.472 262.277,317.378 262.829,317.402 263.365 C 317.431 264.004,317.505 264.112,317.619 263.679 C 317.714 263.316,317.949 263.019,318.141 263.019 C 318.333 263.019,318.491 262.764,318.491 262.453 C 318.491 261.864,318.044 261.704,317.610 262.138 M294.340 263.774 C 294.340 264.189,294.509 264.528,294.717 264.528 C 294.925 264.528,295.094 264.189,295.094 263.774 C 295.094 263.358,294.925 263.019,294.717 263.019 C 294.509 263.019,294.340 263.358,294.340 263.774 M98.179 265.472 C 98.109 266.893,98.474 268.302,98.912 268.302 C 99.095 268.302,99.245 267.962,99.245 267.547 C 99.245 267.132,99.086 266.792,98.892 266.792 C 98.697 266.792,98.470 266.241,98.386 265.566 L 98.234 264.340 98.179 265.472 M75.094 266.038 C 75.094 266.453,75.264 266.792,75.472 266.792 C 75.679 266.792,75.862 267.259,75.879 267.830 C 75.895 268.401,75.997 268.647,76.106 268.376 C 76.387 267.673,75.884 265.283,75.455 265.283 C 75.256 265.283,75.094 265.623,75.094 266.038 M294.391 266.509 C 294.363 266.873,294.170 267.170,293.962 267.170 C 293.755 267.170,293.585 267.509,293.585 267.925 C 293.585 268.792,294.263 268.941,294.570 268.141 C 294.684 267.844,294.701 267.208,294.610 266.726 C 294.504 266.174,294.423 266.094,294.391 266.509 M316.981 266.815 C 316.981 267.242,317.151 267.487,317.358 267.358 C 317.566 267.230,317.736 266.881,317.736 266.582 C 317.736 266.282,317.566 266.038,317.358 266.038 C 317.151 266.038,316.981 266.387,316.981 266.815 M293.962 270.126 C 293.962 270.783,293.792 271.321,293.585 271.321 C 293.377 271.321,293.208 271.660,293.208 272.075 C 293.208 272.491,293.367 272.830,293.562 272.830 C 293.972 272.830,294.546 269.515,294.196 269.165 C 294.068 269.036,293.962 269.469,293.962 270.126 M75.855 270.283 C 75.868 271.360,76.592 271.912,76.598 270.849 C 76.601 270.278,76.434 269.811,76.226 269.811 C 76.019 269.811,75.852 270.024,75.855 270.283 M316.478 270.440 C 316.340 270.579,316.250 271.215,316.278 271.855 C 316.317 272.744,316.368 272.818,316.493 272.170 C 316.583 271.703,316.814 271.321,317.007 271.321 C 317.200 271.321,317.358 271.066,317.358 270.755 C 317.358 270.165,316.912 270.006,316.478 270.440 M98.868 271.276 C 98.868 271.691,99.038 272.136,99.245 272.264 C 99.453 272.392,99.623 272.158,99.623 271.743 C 99.623 271.328,99.453 270.883,99.245 270.755 C 99.038 270.626,98.868 270.861,98.868 271.276 M99.306 274.214 C 99.236 275.585,99.550 276.604,100.040 276.604 C 100.226 276.604,100.377 276.254,100.377 275.827 C 100.377 275.399,100.219 275.148,100.024 275.268 C 99.830 275.388,99.603 274.931,99.519 274.252 L 99.366 273.019 99.306 274.214 M76.226 274.717 C 76.226 275.132,76.396 275.472,76.604 275.472 C 76.811 275.472,76.995 275.939,77.011 276.509 C 77.027 277.080,77.129 277.326,77.238 277.055 C 77.519 276.353,77.016 273.962,76.587 273.962 C 76.389 273.962,76.226 274.302,76.226 274.717 M315.849 275.117 C 315.849 275.544,316.019 275.789,316.226 275.660 C 316.434 275.532,316.604 275.182,316.604 274.883 C 316.604 274.584,316.434 274.340,316.226 274.340 C 316.019 274.340,315.849 274.689,315.849 275.117 M292.925 275.304 C 292.354 275.924,292.302 276.981,292.842 276.981 C 293.321 276.981,293.693 276.085,293.522 275.342 C 293.416 274.879,293.321 274.873,292.925 275.304 M76.604 278.471 C 76.604 278.927,76.858 279.554,77.170 279.865 C 77.673 280.368,77.736 280.329,77.736 279.507 C 77.736 278.999,77.481 278.372,77.170 278.113 C 76.696 277.720,76.604 277.778,76.604 278.471 M292.860 278.585 C 292.844 279.156,292.660 279.623,292.453 279.623 C 292.245 279.623,292.075 279.962,292.075 280.377 C 292.075 280.792,292.238 281.132,292.436 281.132 C 292.865 281.132,293.368 278.742,293.087 278.039 C 292.978 277.769,292.876 278.014,292.860 278.585 M315.259 279.396 C 315.134 279.893,315.108 280.700,315.200 281.188 C 315.329 281.865,315.381 281.779,315.420 280.827 C 315.450 280.101,315.630 279.676,315.849 279.811 C 316.057 279.940,316.226 279.695,316.226 279.268 C 316.226 278.197,315.537 278.288,315.259 279.396 M100.000 279.955 C 100.000 280.371,100.170 280.815,100.377 280.943 C 100.585 281.072,100.755 280.837,100.755 280.422 C 100.755 280.007,100.585 279.562,100.377 279.434 C 100.170 279.306,100.000 279.540,100.000 279.955 M77.358 283.396 C 77.358 283.811,77.528 284.151,77.736 284.151 C 77.943 284.151,78.113 284.604,78.113 285.157 C 78.113 285.711,78.215 286.062,78.339 285.937 C 78.675 285.602,78.103 282.642,77.703 282.642 C 77.513 282.642,77.358 282.981,77.358 283.396 M100.500 283.745 C 100.571 285.134,101.509 285.892,101.509 284.560 C 101.509 284.127,101.352 283.774,101.160 283.774 C 100.967 283.774,100.725 283.476,100.622 283.113 C 100.518 282.750,100.464 283.034,100.500 283.745 M314.717 283.607 C 314.717 284.155,314.880 284.472,315.094 284.340 C 315.302 284.211,315.472 283.777,315.472 283.374 C 315.472 282.971,315.302 282.642,315.094 282.642 C 314.887 282.642,314.717 283.076,314.717 283.607 M291.950 283.648 C 291.558 284.039,291.654 285.283,292.075 285.283 C 292.283 285.283,292.453 284.858,292.453 284.340 C 292.453 283.352,292.366 283.232,291.950 283.648 M291.755 286.887 C 291.724 287.665,291.528 288.302,291.321 288.302 C 291.113 288.302,290.943 288.557,290.943 288.868 C 290.943 289.770,291.661 289.523,291.909 288.536 C 292.033 288.042,292.062 287.151,291.973 286.555 C 291.834 285.627,291.803 285.675,291.755 286.887 M77.736 287.516 C 77.736 287.948,77.893 288.302,78.086 288.302 C 78.278 288.302,78.520 288.599,78.623 288.962 C 78.727 289.325,78.782 289.041,78.745 288.331 C 78.674 286.942,77.736 286.184,77.736 287.516 M314.125 287.706 C 313.999 288.208,313.976 288.930,314.074 289.310 C 314.217 289.866,314.261 289.835,314.296 289.151 C 314.320 288.684,314.509 288.302,314.717 288.302 C 314.925 288.302,315.094 287.962,315.094 287.547 C 315.094 286.490,314.401 286.604,314.125 287.706 M101.132 288.635 C 101.132 289.050,101.302 289.494,101.509 289.623 C 101.717 289.751,101.887 289.516,101.887 289.101 C 101.887 288.686,101.717 288.241,101.509 288.113 C 101.302 287.985,101.132 288.220,101.132 288.635 M78.491 291.654 C 78.491 292.069,78.660 292.513,78.868 292.642 C 79.075 292.770,79.245 292.535,79.245 292.120 C 79.245 291.705,79.075 291.260,78.868 291.132 C 78.660 291.004,78.491 291.238,78.491 291.654 M313.868 291.161 C 313.712 291.318,313.590 291.885,313.596 292.421 C 313.606 293.277,313.656 293.314,313.999 292.724 C 314.429 291.986,314.321 290.704,313.868 291.161 M101.512 292.336 C 101.510 292.998,101.668 293.638,101.861 293.757 C 102.518 294.164,102.639 293.290,102.076 292.209 L 101.514 291.132 101.512 292.336 M290.801 292.387 C 290.634 292.870,290.598 293.365,290.720 293.488 C 291.111 293.879,291.386 293.302,291.243 292.391 L 291.104 291.509 290.801 292.387 M102.067 294.731 C 101.736 295.266,102.248 298.113,102.675 298.113 C 103.158 298.113,103.105 297.079,102.605 296.770 C 102.378 296.629,102.263 296.025,102.351 295.427 C 102.521 294.267,102.455 294.104,102.067 294.731 M290.596 295.755 C 290.579 296.222,290.396 296.604,290.189 296.604 C 289.981 296.604,289.811 296.858,289.811 297.170 C 289.811 297.481,289.978 297.736,290.181 297.736 C 290.635 297.736,291.091 296.065,290.821 295.394 C 290.714 295.125,290.612 295.288,290.596 295.755 M313.001 296.377 C 312.869 297.083,312.841 297.975,312.940 298.359 C 313.044 298.763,313.138 298.541,313.164 297.830 C 313.188 297.156,313.377 296.604,313.585 296.604 C 313.792 296.604,313.962 296.264,313.962 295.849 C 313.962 294.609,313.260 294.995,313.001 296.377 M78.868 296.226 C 78.868 296.642,79.038 296.981,79.245 296.981 C 79.453 296.981,79.636 297.278,79.652 297.642 C 79.671 298.062,79.753 298.125,79.878 297.814 C 80.147 297.142,79.691 295.472,79.238 295.472 C 79.035 295.472,78.868 295.811,78.868 296.226 M312.736 299.463 C 312.580 299.620,312.458 300.187,312.464 300.723 C 312.474 301.579,312.524 301.616,312.867 301.026 C 313.297 300.288,313.189 299.006,312.736 299.463 M79.623 300.333 C 79.623 300.748,79.792 301.192,80.000 301.321 C 80.208 301.449,80.377 301.214,80.377 300.799 C 80.377 300.384,80.208 299.940,80.000 299.811 C 79.792 299.683,79.623 299.918,79.623 300.333 M102.813 301.851 C 102.942 302.765,103.135 303.656,103.244 303.832 C 103.533 304.301,289.332 304.244,289.622 303.775 C 289.776 303.526,258.458 303.430,196.625 303.492 L 103.396 303.585 103.390 302.453 C 103.387 301.830,103.204 301.066,102.983 300.755 C 102.685 300.336,102.641 300.621,102.813 301.851 M289.717 300.595 C 289.561 300.752,289.434 301.226,289.434 301.648 C 289.434 302.203,289.548 302.301,289.847 302.002 C 290.074 301.775,290.201 301.302,290.130 300.950 C 290.058 300.598,289.873 300.438,289.717 300.595 M312.327 303.270 C 311.936 303.662,312.031 304.906,312.453 304.906 C 312.660 304.906,312.830 304.481,312.830 303.962 C 312.830 302.974,312.743 302.854,312.327 303.270 M80.000 304.695 C 80.000 304.994,80.170 305.343,80.377 305.472 C 80.585 305.600,80.778 306.162,80.806 306.720 C 80.854 307.664,80.869 307.673,81.026 306.848 C 81.239 305.726,80.856 304.151,80.370 304.151 C 80.167 304.151,80.000 304.396,80.000 304.695 M311.480 308.474 C 311.352 308.984,311.335 309.621,311.443 309.889 C 311.567 310.200,311.649 310.138,311.668 309.717 C 311.685 309.354,311.868 309.057,312.075 309.057 C 312.283 309.057,312.453 308.717,312.453 308.302 C 312.453 307.238,311.759 307.361,311.480 308.474 M80.760 308.940 C 80.764 309.315,80.931 309.877,81.132 310.189 C 81.418 310.631,81.499 310.534,81.504 309.739 C 81.507 309.181,81.340 308.619,81.132 308.491 C 80.925 308.362,80.757 308.565,80.760 308.940 M311.226 311.916 C 311.071 312.073,310.943 312.547,310.943 312.969 C 310.943 313.524,311.057 313.622,311.356 313.323 C 311.583 313.096,311.711 312.622,311.639 312.270 C 311.568 311.918,311.382 311.759,311.226 311.916 M81.132 313.208 C 81.132 313.623,81.302 313.962,81.509 313.962 C 81.717 313.962,81.887 314.500,81.887 315.157 C 81.887 315.814,81.992 316.247,82.121 316.118 C 82.471 315.768,81.897 312.453,81.486 312.453 C 81.291 312.453,81.132 312.792,81.132 313.208 M310.351 316.763 C 310.225 317.265,310.202 317.987,310.300 318.366 C 310.444 318.922,310.487 318.892,310.522 318.208 C 310.546 317.741,310.736 317.358,310.943 317.358 C 311.151 317.358,311.321 317.019,311.321 316.604 C 311.321 315.547,310.628 315.660,310.351 316.763 M81.780 317.471 C 81.677 317.738,81.829 318.279,82.117 318.673 C 82.613 319.351,82.642 319.336,82.642 318.396 C 82.642 317.307,82.076 316.699,81.780 317.471 M310.094 320.218 C 309.939 320.375,309.811 320.848,309.811 321.270 C 309.811 321.826,309.925 321.924,310.224 321.625 C 310.451 321.398,310.578 320.924,310.507 320.572 C 310.436 320.220,310.250 320.061,310.094 320.218 M82.264 321.887 C 82.264 322.302,82.434 322.642,82.642 322.642 C 82.849 322.642,83.019 322.302,83.019 321.887 C 83.019 321.472,82.849 321.132,82.642 321.132 C 82.434 321.132,82.264 321.472,82.264 321.887 M309.239 325.310 C 309.099 325.947,309.086 326.570,309.209 326.694 C 309.333 326.817,309.434 326.635,309.434 326.289 C 309.434 325.943,309.604 325.660,309.811 325.660 C 310.019 325.660,310.189 325.321,310.189 324.906 C 310.189 323.734,309.523 324.017,309.239 325.310 M82.642 326.195 C 82.642 326.524,82.910 326.792,83.239 326.792 C 83.905 326.792,83.789 325.980,83.090 325.747 C 82.843 325.665,82.642 325.866,82.642 326.195 " stroke="none" fill="#d3c39b" fill-rule="evenodd"></path></g></svg>
