<?xml version="1.0" standalone="no"?>
<!DOCTYPE svg PUBLIC "-//W3C//DTD SVG 20010904//EN"
 "http://www.w3.org/TR/2001/REC-SVG-20010904/DTD/svg10.dtd">
<svg version="1.0" xmlns="http://www.w3.org/2000/svg"
 width="732.000000pt" height="732.000000pt" viewBox="0 0 732.000000 732.000000"
 preserveAspectRatio="xMidYMid meet">
<metadata>
Created by potrace 1.11, written by Peter Selinger 2001-2013
</metadata>
<g transform="translate(0.000000,732.000000) scale(0.100000,-0.100000)"
fill="#000000" stroke="none">
<path d="M1724 6123 c6 -21 86 -391 86 -398 0 -3 805 -5 1788 -5 l1789 0 42
193 c23 105 45 200 47 210 5 16 -89 17 -1876 17 -1787 0 -1881 -1 -1876 -17z"/>
<path d="M1381 5303 c0 -5 17 -98 38 -208 l38 -200 2141 -3 c2032 -2 2141 -1
2146 15 2 10 19 95 36 188 16 94 33 180 35 193 l5 22 -2220 0 c-1221 0 -2220
-3 -2219 -7z"/>
<path d="M1100 4456 c0 -13 25 -217 55 -453 30 -235 122 -961 205 -1613 82
-652 152 -1200 155 -1218 l6 -32 2074 0 c1141 0 2075 3 2075 8 0 4 56 437 125
962 69 525 166 1264 215 1641 50 377 90 695 90 707 l0 22 -2500 0 -2500 0 0
-24z m4515 -438 c-3 -18 -64 -483 -136 -1033 -71 -550 -142 -1094 -158 -1210
l-27 -210 -1700 0 -1699 0 -38 295 c-182 1432 -277 2181 -277 2185 0 3 909 5
2020 5 l2021 0 -6 -32z"/>
</g>
</svg>
